<?xml version="1.0"?><svg id="Layer_1" viewBox="0 0 64 64" xmlns="http://www.w3.org/2000/svg"><path d="M63,26h-7c-.552,0-1,.447-1,1v3h-9.27c-.531-.719-1.109-1.393-1.73-2.016v-6.984c0-2.206-1.794-4-4-4h-4v-4h5.5c.937,0,1.817-.363,2.477-1.022,.65-.649,1.023-1.552,1.023-2.478,0-1.93-1.57-3.5-3.5-3.5h-4.603c-.193-.947-.658-1.825-1.365-2.542-.954-.94-2.208-1.458-3.532-1.458-2.414,0-4.434,1.721-4.899,4h-4.601c-.938,0-1.817,.363-2.477,1.022-.65,.649-1.023,1.552-1.023,2.478,0,1.93,1.57,3.5,3.5,3.5h5.5v4h-4c-2.206,0-4,1.794-4,4v6.983c-.619,.621-1.196,1.295-1.73,2.017H9v-3c0-.553-.448-1-1-1H1c-.552,0-1,.447-1,1v26c0,.553,.448,1,1,1h7c.552,0,1-.447,1-1v-3h9.251c3.197,4.39,8.292,7,13.749,7s10.55-2.609,13.749-7h9.251v3c0,.553,.448,1,1,1h7c.552,0,1-.447,1-1V27c0-.553-.448-1-1-1ZM7,52H2V28H7v24ZM32,4c.795,0,1.551,.313,2.118,.872,.321,.326,.551,.713,.699,1.128h-5.632c.414-1.161,1.514-2,2.816-2Zm-11,5.5c0-.398,.159-.785,.437-1.062,.278-.278,.666-.438,1.063-.438h19c.827,0,1.5,.673,1.5,1.5,0,.398-.159,.785-.437,1.062-.278,.278-.666,.438-1.063,.438H22.5c-.827,0-1.5-.673-1.5-1.5Zm9,3.5h4v4h-4v-4Zm17.008,35c.282-.529,.536-1.072,.759-1.626,.207-.512-.041-1.095-.553-1.302-.513-.203-1.095,.042-1.302,.554-.397,.983-.902,1.93-1.499,2.812-2.798,4.109-7.438,6.562-12.414,6.562s-9.616-2.453-12.412-6.561c-.598-.884-1.103-1.83-1.5-2.813-.206-.512-.789-.757-1.302-.554-.512,.207-.76,.79-.553,1.302,.223,.554,.477,1.097,.759,1.626h-7.993v-16h8.005c-1.309,2.458-2.005,5.188-2.005,8,0,.553,.448,1,1,1s1-.447,1-1c0-3.02,.895-5.938,2.581-8.43,.625-.9,1.335-1.729,2.107-2.465,1.599-1.515,3.544-2.677,5.624-3.359,.524-.172,.811-.737,.638-1.262-.172-.525-.734-.812-1.262-.639-1.67,.549-3.256,1.381-4.688,2.423v-5.269c0-1.103,.897-2,2-2h16c1.103,0,2,.897,2,2v5.269c-1.432-1.043-3.017-1.875-4.688-2.423-.526-.174-1.09,.113-1.262,.639-.172,.524,.114,1.09,.638,1.262,2.08,.683,4.025,1.845,5.623,3.358,.773,.736,1.483,1.565,2.102,2.456,1.693,2.501,2.588,5.42,2.588,8.439,0,.553,.448,1,1,1s1-.447,1-1c0-2.81-.695-5.538-2.006-8h8.006v16h-7.992Zm14.992,4h-5V28h5v24Z"/><path d="M21.136,37.962c.66,.155,1.11-.248,1.236-.688,.666-2.331,2.148-4.34,4.173-5.655,.463-.302,.595-.921,.293-1.384-.3-.463-.919-.595-1.383-.294-2.43,1.579-4.208,3.988-5.006,6.784-.152,.531,.156,1.084,.687,1.236Z"/><path d="M32.814,30.42c-.375-.527-1.254-.527-1.629,0l-5.868,8.236c-.862,1.2-1.318,2.604-1.318,4.063,0,1.951,.869,3.794,2.448,5.189,1.526,1.349,3.498,2.091,5.552,2.091,4.336,0,8-3.334,8-7.28,0-1.459-.456-2.863-1.315-4.06l-5.87-8.24Zm-.814,17.58c-1.566,0-3.068-.564-4.228-1.589-1.143-1.011-1.772-2.321-1.772-3.691,0-1.037,.326-2.038,.944-2.899l5.056-7.097,5.058,7.101c.616,.857,.942,1.858,.942,2.896,0,2.862-2.748,5.28-6,5.28Z"/><path d="M35,41c-.552,0-1,.447-1,1,0,1.103-.897,2-2,2-.552,0-1,.447-1,1s.448,1,1,1c2.206,0,4-1.794,4-4,0-.553-.448-1-1-1Z"/><circle cx="32" cy="24" r="1"/></svg>