<?xml version="1.0"?><!DOCTYPE svg  PUBLIC '-//W3C//DTD SVG 1.1//EN'  'http://www.w3.org/Graphics/SVG/1.1/DTD/svg11.dtd'><svg enable-background="new 0 0 512 512" height="512px" id="icon" version="1.1" viewBox="0 0 512 512" width="512px" xml:space="preserve" xmlns="http://www.w3.org/2000/svg" xmlns:xlink="http://www.w3.org/1999/xlink"><g><g id="XMLID_4_"><g><path d="M314.735,243.054c1.257,4.89,1.939,10.023,1.939,15.294c0,33.785-27.474,61.264-61.261,61.264     c-33.785,0-61.261-27.479-61.261-61.264c0-29.55,21.03-54.296,48.916-60.003c3.988-0.819,8.113-1.257,12.345-1.257     C283.928,197.088,307.934,216.645,314.735,243.054z M289.608,258.348c0-18.844-15.35-34.193-34.194-34.193     c-18.845,0-34.166,15.35-34.166,34.193s15.321,34.197,34.166,34.197C274.259,292.545,289.608,277.191,289.608,258.348z" fill="#CBE1E6"/><path d="M324.759,262.443h165.429c-4.236,24.229-45.448,43.975-93.763,43.975     c-30.863,0-59.349-7.729-77.129-20.787C322.383,278.451,324.268,270.637,324.759,262.443z" fill="#7CB4C1"/><path d="M465.003,240.595l-8.166,0.684c-2.267-27.501-9.968-53.775-22.885-78.084l7.236-3.852     C454.626,184.636,462.656,211.974,465.003,240.595z" fill="#1D1D1B"/><path d="M448.672,317.316l7.839,2.4c-7.839,25.596-20.376,49.189-37.255,70.137l-6.391-5.16     C429.087,364.563,441.132,341.898,448.672,317.316z" fill="#1D1D1B"/><path d="M324.759,254.251c-0.271-4.531-0.981-8.957-2.102-13.189c-0.086-0.41-0.192-0.792-0.302-1.203     c23.461-3.686,50.637-19.2,73.55-42.113c19.036-19.01,32.992-40.886,39.327-61.589c6.612-21.604,4.209-39.548-6.771-50.526     l-2.895-2.896L301.68,206.62c-3.934-3.522-8.25-6.608-12.917-9.177c14.419-19.146,22.914-49.517,22.914-82.698     c0-57.384-24.717-102.31-56.263-102.31h-4.097V189.03c-3.305,0.192-6.583,0.63-9.778,1.313c-1.529,0.271-3.031,0.626-4.533,1.037     c-3.223-23.789-18.764-51.455-42.333-75.055c-19.037-19.009-40.913-32.989-61.615-39.327     c-21.604-6.609-39.547-4.206-50.527,6.772l-2.895,2.896l124.677,124.677c-2.541,2.786-4.888,5.79-6.964,8.959     c-19.201-13.984-49.299-22.231-81.772-22.231c-57.381,0-102.31,24.717-102.31,56.288v4.097H185.96     c0,4.643,0.465,9.176,1.365,13.576c-23.187,3.984-49.815,19.307-72.402,41.896c-19.009,19.006-32.994,40.883-39.329,61.611     c-6.609,21.605-4.206,39.549,6.773,50.527l2.896,2.896l121.291-121.291c3.961,3.904,8.357,7.344,13.165,10.24     c-12.946,19.23-20.566,48.371-20.566,79.369c0,57.355,24.718,102.281,56.263,102.281h4.096V327.666     c4.778-0.273,9.396-1.041,13.874-2.215c4.561,22.645,19.694,48.453,41.488,70.248c19.009,19.008,40.884,32.967,61.613,39.305     c7.976,2.453,15.485,3.658,22.314,3.658c11.606,0,21.278-3.5,28.186-10.434l2.896-2.896L308.101,303.549     c2.783-3.248,5.296-6.773,7.453-10.514c19.229,13.576,48.972,21.578,80.871,21.578c57.355,0,102.308-24.721,102.308-56.266     v-4.097H324.759z M425.321,94.56c6.364,8.959,7.127,22.697,2.075,39.194c-5.952,19.443-19.201,40.119-37.281,58.2     c-22.231,22.23-48.396,37.033-70.465,39.983c-2.976-7.183-7.102-13.766-12.181-19.526L425.321,94.56z M259.51,20.983     c24.229,4.232,43.974,45.446,43.974,93.762c0,31.79-8.495,61.724-22.313,79.121c-6.771-2.704-14.037-4.398-21.66-4.836V20.983z      M91.462,86.913c8.985-6.364,22.696-7.13,39.191-2.075c19.446,5.953,40.123,19.198,58.229,37.279     c22.559,22.588,37.718,49.873,40.176,71.995c-6.911,2.84-13.246,6.774-18.845,11.554L91.462,86.913z M186.452,250.264H21.817     c4.232-24.252,45.446-43.998,93.76-43.998c31.246,0,59.923,7.893,77.648,21.193C189.73,234.479,187.38,242.152,186.452,250.264z      M85.508,417.139c-6.364-8.982-7.128-22.697-2.075-39.191c5.954-19.477,19.2-40.146,37.28-58.23     c21.686-21.684,47.003-36.268,68.715-39.768c2.596,7.922,6.583,15.215,11.663,21.605L85.508,417.139z M251.317,491.018     c-24.226-4.209-43.972-45.42-43.972-93.734c0-29.877,7.292-57.711,19.665-75.57c7.482,3.387,15.704,5.463,24.307,5.953V491.018z      M418.057,425.086c-8.959,6.365-22.672,7.127-39.192,2.076c-19.448-5.953-40.121-19.172-58.202-37.281     c-21.031-21.002-35.505-45.717-39.467-67.049c7.866-3.168,15.052-7.729,21.224-13.383L418.057,425.086z M255.414,319.611     c-33.785,0-61.261-27.479-61.261-61.264c0-29.55,21.03-54.296,48.916-60.003c3.988-0.819,8.113-1.257,12.345-1.257     c28.514,0,52.52,19.557,59.321,45.966c1.257,4.89,1.939,10.023,1.939,15.294C316.675,292.133,289.201,319.611,255.414,319.611z      M396.425,306.418c-30.863,0-59.349-7.729-77.129-20.787c3.087-7.18,4.972-14.994,5.463-23.188h165.429     C485.951,286.672,444.739,306.418,396.425,306.418z" fill="#1D1D1B"/><path d="M425.321,94.56c6.364,8.959,7.127,22.697,2.075,39.194c-5.952,19.443-19.201,40.119-37.281,58.2     c-22.231,22.23-48.396,37.033-70.465,39.983c-2.976-7.183-7.102-13.766-12.181-19.526L425.321,94.56z" fill="#76DEF6"/><path d="M302.419,309.449l115.638,115.637c-8.959,6.365-22.672,7.127-39.192,2.076     c-19.448-5.953-40.121-19.172-58.202-37.281c-21.031-21.002-35.505-45.717-39.467-67.049     C289.062,319.664,296.247,315.104,302.419,309.449z" fill="#76DEF6"/><path d="M388.094,94.835l-5.161,6.363c-20.62-16.771-43.888-29.145-69.207-36.764l2.376-7.836     C342.429,64.517,366.654,77.381,388.094,94.835z" fill="#1D1D1B"/><path d="M348.001,437.676l3.771,7.293c-25.018,12.918-52.004,20.568-80.19,22.723l-0.598-8.193     C298.047,457.449,323.968,450.105,348.001,437.676z" fill="#1D1D1B"/><path d="M303.483,114.745c0,31.79-8.495,61.724-22.313,79.121c-6.771-2.704-14.037-4.398-21.66-4.836V20.983     C283.738,25.216,303.483,66.43,303.483,114.745z" fill="#7CB4C1"/><path d="M255.414,224.154c18.845,0,34.194,15.35,34.194,34.193s-15.35,34.197-34.194,34.197     c-18.845,0-34.166-15.354-34.166-34.197S236.569,224.154,255.414,224.154z M281.415,258.348     c0-14.339-11.664-25.999-26.001-25.999c-14.339,0-25.973,11.66-25.973,25.999c0,14.336,11.634,26.004,25.973,26.004     C269.751,284.352,281.415,272.684,281.415,258.348z" fill="#1D1D1B"/><path d="M255.414,232.349c14.337,0,26.001,11.66,26.001,25.999c0,14.336-11.664,26.004-26.001,26.004     c-14.339,0-25.973-11.668-25.973-26.004C229.441,244.009,241.075,232.349,255.414,232.349z" fill="#76DEF6"/><path d="M251.317,327.666v163.352c-24.226-4.209-43.972-45.42-43.972-93.734c0-29.877,7.292-57.711,19.665-75.57     C234.493,325.1,242.714,327.176,251.317,327.666z" fill="#7CB4C1"/><path d="M233.919,48.786l0.82,8.166c-25.756,2.596-50.391,10.024-73.278,22.068l-3.823-7.238     C181.454,59.246,207.126,51.517,233.919,48.786z" fill="#1D1D1B"/><path d="M188.883,122.117c22.559,22.588,37.718,49.873,40.176,71.995c-6.911,2.84-13.246,6.774-18.845,11.554     L91.462,86.913c8.985-6.364,22.696-7.13,39.191-2.075C150.1,90.791,170.776,104.036,188.883,122.117z" fill="#76DEF6"/><path d="M201.091,301.555L85.508,417.139c-6.364-8.982-7.128-22.697-2.075-39.191     c5.954-19.477,19.2-40.146,37.28-58.23c21.686-21.684,47.003-36.268,68.715-39.768     C192.024,287.871,196.011,295.164,201.091,301.555z" fill="#76DEF6"/><path d="M196.339,451.332l-2.403,7.842c-29.06-8.879-56.454-24.391-79.149-44.82l5.463-6.092     C142.098,427.896,168.399,442.785,196.339,451.332z" fill="#1D1D1B"/><path d="M193.226,227.459c-3.496,7.021-5.846,14.693-6.774,22.805H21.817     c4.232-24.252,45.446-43.998,93.76-43.998C146.823,206.266,175.5,214.158,193.226,227.459z" fill="#7CB4C1"/><path d="M97.36,119.276l6.173,5.409c-17.507,19.91-30.726,42.661-39.302,67.623l-7.756-2.648     C65.407,163.688,79.172,140.009,97.36,119.276z" fill="#1D1D1B"/><path d="M74.802,348.779l-7.32,3.686c-12.619-25.045-19.964-51.998-21.875-80.053l8.193-0.57     C55.601,298.822,62.675,324.715,74.802,348.779z" fill="#1D1D1B"/></g></g></g></svg>