<?xml version="1.0"?><svg data-name="Layer 1" id="Layer_1" viewBox="0 0 512 512" xmlns="http://www.w3.org/2000/svg"><path d="M460.2,214.22H431.27a7.12,7.12,0,0,0-7.12,7.13v55.38c-.25,0-.46-.14-.71-.14H398.65V202.42a32.2,32.2,0,0,0-32.16-32.18H271.33V144.49h55.24a7.13,7.13,0,0,0,7.12-7.13V101.57a7.12,7.12,0,0,0-7.12-7.12H191.89a7.12,7.12,0,0,0-7.12,7.12v35.79a7.12,7.12,0,0,0,7.12,7.13h55.23v25.75H149.45a32.22,32.22,0,0,0-32.18,32.18V255H89.33V199.77a7.13,7.13,0,0,0-7.12-7.13H51.8a7.13,7.13,0,0,0-7.12,7.13V334.44a7.12,7.12,0,0,0,7.12,7.12H82.21a7.12,7.12,0,0,0,7.12-7.12V279.22h27.94v56a32.22,32.22,0,0,0,32.18,32.18h52.26a18,18,0,0,1,17.93,17.94,32.22,32.22,0,0,0,32.18,32.18H366.49a32.2,32.2,0,0,0,32.16-32.18V300.8h24.79c.25,0,.46-.13.71-.15V356a7.12,7.12,0,0,0,7.12,7.12H460.2a7.12,7.12,0,0,0,7.12-7.12V221.35A7.13,7.13,0,0,0,460.2,214.22ZM317.92,274.58,267.76,367a3.55,3.55,0,0,1-6.6-2.44l13.64-63.93H215.74a3.58,3.58,0,0,1-3.2-5.14c18.92-38.64,47.53-97.3,48.74-100.46a3.58,3.58,0,0,1,4.26-2.21,3.5,3.5,0,0,1,2.61,4l-11.61,72.52h58.25a3.55,3.55,0,0,1,3.13,5.26Z"/></svg>